Motion_pl11
version=1
nRows=13
nColumns=43
inDegrees=yes
endheader
time	pelvis_tilt	pelvis_list	pelvis_rotation	pelvis_tx	pelvis_ty	pelvis_tz	hip_flexion_r	hip_adduction_r	hip_rotation_r	knee_angle_r	ankle_angle_r	subtalar_angle_r	mtp_angle_r	hip_flexion_l	hip_adduction_l	hip_rotation_l	knee_angle_l	ankle_angle_l	subtalar_angle_l	mtp_angle_l	lumbar_extension	lumbar_bending	lumbar_rotation	neck_flexion	neck_lateral_bending	neck_rotation	arm_flex_r	arm_add_r	arm_rot_r	elbow_flex_r	pro_sup_r	wrist_flex_r	wrist_dev_r	hand_finger_flex_r	arm_flex_l	arm_add_l	arm_rot_l	elbow_flex_l	pro_sup_l	wrist_flex_l	wrist_dev_l	hand_finger_flex_l
      0.95500000	     -2.70052026	    -15.96933557	     90.33781545	      0.00250571	      1.62723045	      1.76928927	    101.96779777	    -10.71735998	      8.99479146	   -133.90676639	     27.75482273	     14.58088069	     20.41510009	     99.27883168	     -6.67205483	      6.45075917	   -133.91365766	     28.19939672	     15.68316342	      9.47304111	    -49.77764760	     -1.98977628	      0.09774047	     19.79719826	      3.54210410	     -2.64072153	     42.35826523	    -72.41953272	    -62.33874200	    118.58413430	    137.96799807	    -18.76482396	     16.76861306	    -30.98164159	     26.04492258	    -62.89267405	    -69.71708484	    122.64498887	    128.76159583	    -30.45387832	     27.35748258	     -5.02145489
      0.95750000	     -2.71425725	    -16.04932017	     90.33461512	      0.00256580	      1.62743120	      1.76924390	    102.01785219	    -10.70180010	      8.96536134	   -133.88570455	     27.79460746	     14.59001768	     18.89471993	     99.32191098	     -6.64742531	      6.43544703	   -133.87761168	     28.33144596	     15.69319268	      7.34556740	    -49.79149100	     -2.09503100	      0.71523760	     19.83073497	      3.56388926	     -3.24387168	     38.74714497	    -72.63566868	    -65.52563200	    118.81854863	    136.78304869	    -20.93982165	     16.08685381	    -27.53707380	     28.55489133	    -62.19593760	    -66.61633294	    122.77377682	    128.49592231	    -31.12696960	     27.10458233	     -3.96420558
      0.96000000	     -2.70513010	    -16.04391633	     90.31704890	      0.00252874	      1.62766394	      1.76911137	    101.98086953	    -10.68098895	      8.94847781	   -133.85222888	     27.78139382	     14.58010065	     18.89020603	     99.29269778	     -6.64559712	      6.42691477	   -133.85975091	     28.32798595	     15.67333154	      7.34041537	    -49.89558420	     -2.09335502	      0.66952337	     20.02056020	      3.49168934	     -3.20334167	     38.54603009	    -72.25144463	    -65.28468558	    119.19677479	    136.77260529	    -20.90134610	     15.96387535	    -27.50798908	     28.46187699	    -61.90273711	    -66.32393567	    122.96584066	    128.44807444	    -31.06952687	     27.08286981	     -3.92429221
      0.96250000	     -2.74781536	    -16.11855956	     90.29562833	      0.00245453	      1.62789910	      1.76922633	    102.03332327	    -10.65960296	      8.95422268	   -133.78101485	     27.73936613	     14.44482819	     18.84395329	     99.32657133	     -6.62215462	      6.36543301	   -133.78842276	     28.28469862	     15.54482429	      7.29408776	    -49.92161026	     -2.13179328	      0.61404481	     20.11540288	      3.56155525	     -3.04790788	     38.60770063	    -71.76127604	    -64.97603815	    119.58089842	    136.36120935	    -20.48560400	     15.44506021	    -27.14761008	     28.93722019	    -61.62133741	    -65.61842531	    123.17055857	    127.97300451	    -30.78095527	     27.03080984	     -3.68901518
      0.96500000	     -2.73822747	    -16.11343068	     90.26808609	      0.00235266	      1.62820309	      1.76910522	    101.97730708	    -10.64665358	      8.93449563	   -133.73858606	     27.70223752	     14.44394888	     18.83003597	     99.28558624	     -6.60764391	      6.36895250	   -133.76642606	     28.25352870	     15.53048565	      7.27960427	    -50.03663746	     -2.12870388	      0.57272158	     20.22848341	      3.50468620	     -3.04213243	     38.39115324	    -71.36786522	    -64.70603155	    119.94403803	    136.27046714	    -20.46854425	     15.30502691	    -27.07699463	     28.86998563	    -61.32890325	    -65.29392502	    123.39041739	    127.88832269	    -30.76628835	     26.99368818	     -3.65261827
      0.96750000	     -2.72517829	    -16.11522277	     90.25966903	      0.00226630	      1.62837317	      1.76898312	    101.96064639	    -10.62188237	      8.91542529	   -133.71419521	     27.67355456	     14.42991175	     18.81544630	     99.26352978	     -6.59606120	      6.37179739	   -133.76528089	     28.22191769	     15.50724738	      7.26527947	    -50.12328852	     -2.11585361	      0.52972190	     20.39089998	      3.47379728	     -3.00445159	     38.19271063	    -70.96534319	    -64.40219380	    120.29286773	    136.13505496	    -20.41413637	     15.15722840	    -26.97462945	     28.81779978	    -61.04277154	    -64.91203514	    123.56886279	    127.75338111	    -30.72824777	     26.97355792	     -3.60096729
      0.97000000	     -2.75937215	    -16.20414550	     90.24326177	      0.00222975	      1.62853556	      1.76919849	    102.04115923	    -10.60742242	      8.91664713	   -133.64180130	     27.59380622	     14.26090834	     18.71558070	     99.35102252	     -6.56224261	      6.32324303	   -133.68858644	     28.12527550	     15.38268504	      7.17684104	    -50.10893512	     -2.16532926	      0.50430216	     20.40027344	      3.63077669	     -2.86376412	     38.42900364	    -70.44115938	    -63.93621987	    120.61863248	    135.11580714	    -20.01562995	     14.47503419	    -26.22986154	     29.55248559	    -60.73035238	    -63.85847195	    123.69686286	    126.90537346	    -30.65912481	     26.87055183	     -3.39573801
      0.97250000	     -2.74754857	    -16.18210827	     90.22449635	      0.00213792	      1.62877717	      1.76902137	    101.98994879	    -10.58394900	      8.89953927	   -133.61491620	     27.57002112	     14.25808978	     18.70084969	     99.28558239	     -6.56090514	      6.32269113	   -133.68937890	     28.10899954	     15.37573607	      7.16339629	    -50.22762894	     -2.14861635	      0.47182596	     20.55506827	      3.56153505	     -2.86919345	     38.17175693	    -70.05898884	    -63.64312696	    120.92759066	    135.03088074	    -20.02286804	     14.34782002	    -26.15171226	     29.40005054	    -60.41833452	    -63.51775611	    123.87185205	    126.82913807	    -30.66358653	     26.82747567	     -3.37770196
      0.97500000	     -2.77059402	    -16.22918784	     90.19324445	      0.00209951	      1.62906863	      1.76915971	    102.00740197	    -10.55670346	      8.87788781	   -133.53961718	     27.50821478	     14.09198723	     18.56914337	     99.30894859	     -6.55794058	      6.28058534	   -133.61432395	     28.06637386	     15.28844351	      7.04698128	    -50.27418260	     -2.18894285	      0.48774171	     20.61883457	      3.59822706	     -2.84509687	     38.33565199	    -69.56407740	    -63.20639208	    121.21663090	    133.97674173	    -19.87231431	     13.64856281	    -25.29567056	     30.02809466	    -60.05793417	    -62.48618991	    123.95895750	    125.98516326	    -30.78377082	     26.58366902	     -3.30620326
      0.97750000	     -2.76081089	    -16.21240526	     90.17505512	      0.00201421	      1.62930197	      1.76897917	    101.95589788	    -10.54316068	      8.86150766	   -133.51056876	     27.48635947	     14.08890286	     18.55339830	     99.25576273	     -6.55721975	      6.28162933	   -133.60812193	     28.04959484	     15.28518807	      7.03177860	    -50.38520324	     -2.17485070	      0.46801682	     20.78467551	      3.54026093	     -2.84380052	     38.04727739	    -69.19600849	    -62.89978591	    121.47801487	    133.90461286	    -19.87755647	     13.54742500	    -25.21177194	     29.82974925	    -59.75145929	    -62.13915721	    124.10833542	    125.90487658	    -30.77134938	     26.54797830	     -3.28780356
      0.98000000	     -2.77069168	    -16.29775373	     90.13857727	      0.00200683	      1.62951428	      1.76908982	    102.01556153	    -10.49517034	      8.81281420	   -133.43409467	     27.43592028	     13.91150715	     18.40632248	     99.31314673	     -6.57043748	      6.25521447	   -133.54786409	     28.02183432	     15.22477485	      6.89585619	    -50.38688965	     -2.20854500	      0.49438103	     20.85445234	      3.57102183	     -2.81899208	     38.13771328	    -68.70582121	    -62.46689022	    121.75002471	    132.95003321	    -19.80582518	     12.99926050	    -24.30618409	     30.34942784	    -59.36745409	    -61.18900463	    124.21350177	    125.02051467	    -30.79878564	     26.30719572	     -3.21995341
      0.98250000	     -2.76237018	    -16.29789374	     90.10923380	      0.00183202	      1.62978172	      1.76892204	    101.96551195	    -10.48792603	      8.79807376	   -133.40490469	     27.41529905	     13.90710686	     18.39127303	     99.26715920	     -6.57642787	      6.25516621	   -133.53337754	     28.00681444	     15.22382957	      6.88096120	    -50.49435457	     -2.18859430	      0.47354782	     21.02609422	      3.51605539	     -2.81703613	     37.84559715	    -68.34953008	    -62.15299162	    121.96987475	    132.88887158	    -19.79440833	     12.91800978	    -24.22151218	     30.13731877	    -59.07932729	    -60.84591954	    124.33781912	    124.94285055	    -30.76516274	     26.27845073	     -3.19800026
      0.98500000	     -2.77977273	    -16.40489236	     90.06298091	      0.00196289	      1.62994604	      1.76898370	    102.05264249	    -10.41871741	      8.75107086	   -133.32326994	     27.37408504	     13.72759224	     18.24395233	     99.34383237	     -6.61874786	      6.22649027	   -133.47247211	     27.99015256	     15.19558632	      6.74319394	    -50.46362953	     -2.24887079	      0.49441742	     21.11266242	      3.53294485	     -2.79320817	     37.94057901	    -67.80332871	    -61.65743140	    122.26082542	    132.04732549	    -19.68640828	     12.50456860	    -23.31884213	     30.61267924	    -58.65085361	    -59.95688916	    124.46219423	    124.09431739	    -30.63146607	     26.05526232	     -3.08483666
